<?xml version="1.0" encoding="UTF-8"?>
<svg id="_Слой_1" data-name="Слой 1" xmlns="http://www.w3.org/2000/svg" viewBox="0 0 739 559">
  <defs>
    <style>
      .cls-1 {
        fill: #fff;
      }

      .cls-2 {
        fill: #808181;
      }
    </style>
  </defs>
  <rect class="cls-2" x="-9" y="-11" width="756" height="579"/>
  <g>
    <path class="cls-1" d="M641.56979,81.07636v177.4138L80.69296,462.63688,258.61914,81.07636h382.95066M643.99599,73.64615h-386.92525c-1.93956,0-3.70641,1.11674-4.5297,2.88307L71.48358,464.80715c-1.61627,3.47048,1.05661,7.12957,4.49934,7.12957.56431,0,1.15169-.09816,1.74372-.314l567.98584-206.73326c1.97498-.7128,3.28752-2.5999,3.28752-4.69514V78.64193c0-2.76282-2.24119-4.99578-5.00401-4.99578h0Z"/>
    <path class="cls-1" d="M281.41648,108.60379h-8.80031v-21.12095h-7.75397v49.28615h7.75397v-21.12146h8.80031v21.12146h7.88451v-49.28615h-7.88451v21.12095ZM608.08504,87.48284h-7.74935v49.28615h7.74935v-49.28615ZM302.10368,87.48284l-7.88704,49.28615h7.11925l1.33468-8.94112h9.50588l1.33978,8.94112h7.8141l-7.88708-49.28615h-11.33957ZM303.65215,121.14336l3.73104-24.93318,3.73665,24.93318h-7.46768ZM369.10608,107.82829l-2.82037,10.8457v-31.19115h-6.90601v49.28615h7.95954l6.47946-22.59692,3.16423-12.12021v34.71713h6.97843v-49.28615h-8.52434l-6.33094,20.34545ZM492.07456,124.30754l.84072-29.7861h6.76263v42.24755h7.88708v-49.28615h-21.90925l-1.26222,37.24611c-.13563,4.58208-1.26989,5.07647-4.78765,5.07647v7.0386h1.19177c7.75659,0,10.99576-3.52033,11.27692-12.53648ZM595.90162,124.59122v-6.40649c0-7.88965-3.80401-12.18805-11.55028-12.18805h-3.66628v-18.51385h-7.7437v49.28615h11.40998c7.74627,0,11.55028-4.2835,11.55028-12.17777ZM580.68506,113.04557h3.66628c2.4668,0,3.80144,1.12651,3.80144,4.64478v7.39526c0,3.51519-1.33464,4.6494-3.80144,4.6494h-3.66628v-16.68944ZM536.83157,124.59122v-6.40649c0-7.88965-3.80406-12.18805-11.54827-12.18805h-3.65853v-18.51385h-7.75145v49.28615h11.40998c7.74421,0,11.54827-4.2835,11.54827-12.17777ZM521.62477,113.04557h3.65853c2.46423,0,3.80196,1.12651,3.80196,4.64478v7.39526c0,3.51519-1.33773,4.6494-3.80196,4.6494h-3.65853v-16.68944ZM550.07361,115.64753h8.80288v21.12146h7.88657v-49.28615h-7.88657v21.12095h-8.80288v-21.12095h-7.75141v49.28615h7.75141v-21.12146ZM350.66726,87.48284h-7.88965v42.25217h-8.80031v-42.25217h-7.74113v49.28615h20.27042v6.62953h7.53813v-13.52783h-3.37746v-42.38785ZM467.75136,136.76899h7.81667l-7.88451-49.28615h-11.33443l-7.88965,49.28615h7.10901l1.33773-8.94112h9.50797l1.33721,8.94112ZM457.89238,121.14336l3.7336-24.93318,3.73412,24.93318h-7.46772ZM635.42181,94.52144v-7.0386h-21.12609v49.28615h21.12609v-7.03398h-13.37258v-14.44106h10.63494v-7.04374h-10.63494v-13.72877h13.37258ZM401.45148,86.91548c-7.61316,0-11.75893,4.51167-11.75893,12.39361v25.63571c0,7.88451,4.14577,12.38899,11.75893,12.38899,7.60597,0,11.7615-4.50448,11.7615-12.38899v-25.63571c0-7.88194-4.15553-12.39361-11.7615-12.39361ZM405.46671,125.43662c0,3.52341-1.54329,4.85548-4.01523,4.85548-2.45909,0-4.01729-1.33207-4.01729-4.85548v-26.61677c0-3.5229,1.5582-4.86062,4.01729-4.86062,2.47194,0,4.01523,1.33773,4.01523,4.86062v26.61677ZM426.75879,115.64753h8.80035v21.12146h7.88395v-49.28615h-7.88395v21.12095h-8.80035v-21.12095h-7.75141v49.28615h7.75141v-21.12146ZM535.41362,153.67223v-7.03912h-21.12095v49.29129h21.12095v-7.0386h-13.37982v-14.43386h10.6299v-7.04374h-10.6299v-13.73597h13.37982ZM558.65294,195.9244h7.95496l-10.77791-27.3193,10.77791-21.97199h-7.74426l-10.14266,21.47761v-21.47761h-7.75141v49.29129h7.75141v-15.13639l2.39125-4.50654,7.5407,19.64292ZM586.4291,195.9244v-42.25217h8.09522v-7.03912h-23.94441v7.03912h8.09522v42.25217h7.75397ZM622.40584,183.74406v-6.40649c0-7.88913-3.80915-12.18548-11.55079-12.18548h-3.66371v-18.51899h-7.75397v49.29129h11.41769c7.74164,0,11.55079-4.28812,11.55079-12.18034ZM607.19134,172.19378h3.66371c2.45909,0,3.79425,1.13421,3.79425,4.6494v7.39269c0,3.52804-1.33516,4.64992-3.79425,4.64992h-3.66371v-16.69201ZM480.23799,165.2225v-6.41111c0-7.88194-3.80401-12.17828-11.54565-12.17828h-11.40227v49.29129h7.7437v-18.52156h3.65857c7.74164,0,11.54565-4.28812,11.54565-12.18034ZM465.03376,153.67223h3.65857c2.45909,0,3.802,1.12907,3.802,4.65197v7.39783c0,3.52033-1.34291,4.64221-3.802,4.64221h-3.65857v-16.69201ZM426.66577,195.9244h7.7437v-42.25217h8.80031v42.25217h7.89222v-49.29129h-24.43622v49.29129ZM626.83734,195.9244h7.75145v-49.29129h-7.75145v49.29129ZM496.72958,146.07088c-7.60083,0-11.75636,4.50448-11.75636,12.39413v25.63571c0,7.88913,4.15553,12.39618,11.75636,12.39618,7.60854,0,11.76355-4.50705,11.76355-12.39618v-25.63571c0-7.88965-4.15502-12.39413-11.76355-12.39413ZM500.74686,184.59254c0,3.52033-1.55049,4.85548-4.01729,4.85548-2.46166,0-4.01523-1.33516-4.01523-4.85548v-26.61934c0-3.52598,1.55357-4.85805,4.01523-4.85805,2.4668,0,4.01729,1.33207,4.01729,4.85805v26.61934ZM619.72833,226.13705l-2.81827,10.84827v-31.19885h-6.90298v49.299h7.95697l6.48152-22.60719,3.16937-12.11507v34.72227h6.97385v-49.299h-8.52695l-6.33351,20.35059ZM505.22616,205.22681c-7.59826,0-11.7615,4.50448-11.7615,12.39361v25.628c0,7.88965,4.16324,12.39618,11.7615,12.39618,7.60597,0,11.7615-4.50654,11.7615-12.39618v-25.628c0-7.88913-4.15553-12.39361-11.7615-12.39361ZM509.23625,243.7428c0,3.52341-1.54329,4.86062-4.01009,4.86062-2.46423,0-4.01266-1.33721-4.01266-4.86062v-26.6142c0-3.52547,1.54843-4.86319,4.01266-4.86319,2.4668,0,4.01009,1.33773,4.01009,4.86319v26.6142ZM477.18687,205.78646h-11.41049v49.299h7.74678v-18.52207h3.66371c7.74627,0,11.54514-4.29069,11.54514-12.18291v-6.41111c0-7.88965-3.79887-12.18291-11.54514-12.18291ZM480.99088,224.8723c0,3.52084-1.33768,4.64735-3.80401,4.64735h-3.66371v-16.68225h3.66371c2.46633,0,3.80401,1.11931,3.80401,4.64272v7.39218ZM533.90322,205.22681c-7.60597,0-11.54565,4.50448-11.54565,12.39361v25.628c0,7.88965,3.93969,12.39618,11.54565,12.39618,7.60083,0,11.55028-4.50654,11.55028-12.39618v-6.54421h-7.32686v7.0386c0,3.52341-1.54591,4.79022-4.01014,4.79022-2.4668,0-4.01986-1.2668-4.01986-4.79022v-26.6142c0-3.52547,1.55306-4.86319,4.01986-4.86319,2.46423,0,4.01014,1.33773,4.01014,4.86319v5.28461h7.32686v-4.79279c0-7.88913-3.94945-12.39361-11.55028-12.39361ZM562.23648,205.22681c-7.6034,0-11.54565,4.50448-11.54565,12.39361v25.628c0,7.88965,3.94225,12.39618,11.54565,12.39618,7.60802,0,11.55028-4.50654,11.55028-12.39618v-6.54421h-7.31972v7.0386c0,3.52341-1.55049,4.79022-4.01472,4.79022s-4.01266-1.2668-4.01266-4.79022v-26.6142c0-3.52547,1.54843-4.86319,4.01266-4.86319s4.01472,1.33773,4.01472,4.86319v5.28461h7.31972v-4.79279c0-7.88913-3.94225-12.39361-11.55028-12.39361ZM589.02849,226.13705l-2.81524,10.84827v-31.19885h-6.90344v49.299h7.95753l6.4789-22.60719,3.17189-12.11507v34.72227h6.96871v-49.299h-8.52434l-6.33402,20.35059Z"/>
  </g>
</svg>